<svg width="24" height="24" viewBox="0 0 24 24" fill="none" xmlns="http://www.w3.org/2000/svg">
<g clip-path="url(#clip0_42_86)">
<path d="M3 20V4H10V9H15V10.5L17 8.5V8L11 2H3C1.9 2 1 2.9 1 4V20C1 21.1 1.9 22 3 22H15C16.1 22 17 21.1 17 20H3Z" fill="#38B0E3"/>
<path d="M10 17.1001C10.1 17.1001 10.3 17.0001 10.5 17.0001V18.8001H10H9L8.4 16.3001L5.5 18.9001H4L5 13.9002H6.5L5.9 16.6001L8 14.9002H9.5L10 17.1001Z" fill="#FFB629"/>
<path d="M13.3 18.8001L19 13.1002L16.7 10.8002L11 16.5002V18.8001H13.3Z" fill="#0099FF"/>
<path d="M21.4 13.8C21.7 13.5 22 13.2 22 12.9C22.1 12.6 21.8 12.3 21.5 12C21.3 11.8 21.1 11.6 21.1 11.4C21.1 11.2 21.3 11 21.5 10.8C21.7 10.5 21.7 10.1 21.5 9.89998L20.1 8.49998C19.8 8.29998 19.4 8.29998 19.2 8.49998L17 10.6L19.3 12.9L20 12.2L20.6 12.8L18 15.4L18.9 16.3L21.4 13.8Z" fill="#FF6101"/>
</g>
<defs>
<clipPath id="clip0_42_86">
<rect width="24" height="24" fill="white"/>
</clipPath>
</defs>
</svg>
